<?xml version="1.0" encoding="utf-8"?>
<!-- Generator: Adobe Illustrator 22.0.0, SVG Export Plug-In . SVG Version: 6.00 Build 0)  -->
<svg version="1.1" xmlns="http://www.w3.org/2000/svg" xmlns:xlink="http://www.w3.org/1999/xlink" x="0px" y="0px"
	 viewBox="0 0 20 20" style="enable-background:new 0 0 20 20;" xml:space="preserve">
<style type="text/css">
	.st0{display:none;}
	.st1{fill:#55534E;}
	.st2{display:inline;fill:#225BB6;}
	.st3{display:inline;fill:#EFF5FF;stroke:#2158B4;stroke-width:0.1;stroke-miterlimit:10;}
	.st4{fill:#225BB6;}
</style>
<g id="图层_1" class="st0">
	<path class="st1" d="M14.9,12.5c-1.9,0-3.4,1.1-4,2.6v-3.6c0.3,0.2,0.7,0.3,1.1,0.3c1.6,0,2.2-1.4,2.2-2.2c0-0.2,0-1-0.8-1.7
		c1.3-0.1,2-1.2,2-2.2c0-1.2-1-2.2-2.2-2.2c-0.4,0-0.8,0.1-1.1,0.3c0-0.2,0.1-0.3,0.1-0.5c0-1.2-1-2.2-2.2-2.2c0,0,0,0,0,0
		c-1.2,0-2.2,1-2.2,2.2c0,0.2,0,0.3,0.1,0.5C7.5,3.7,7.1,3.6,6.7,3.6c-1.2,0-2.2,1-2.2,2.2c0,1,0.8,2.1,2,2.2C6.1,8.4,5.8,9,5.8,9.7
		c0,0.8,0.6,2.2,2.2,2.2c0.4,0,0.8-0.1,1.1-0.3v3.6c-0.6-1.6-2.1-2.6-4-2.6l-0.7,0.7l4.3,4.3h2.6l4.3-4.3L14.9,12.5L14.9,12.5z
		 M10,8.1c-0.7,0-1.3-0.6-1.3-1.3S9.3,5.6,10,5.6s1.3,0.6,1.3,1.3S10.7,8.1,10,8.1"/>
	
		<image style="overflow:visible;" width="2048" height="2048" xlink:href="01.png"  transform="matrix(1.526657e-02 0 0 1.526657e-02 -5.6315 -6.2581)">
	</image>
	<path class="st2" d="M3.4,9.3C3,9.3,2.6,9.3,2.3,9.5v-2c0-0.6-0.5-1.1-1.1-1.1c-0.6,0-1.1,0.5-1.1,1.1v3.3c0,0.3,0,1.6,0,1.6
		s0,0,0,0c0,0,0,0.1,0,0.1c0,1.8,1.4,3.2,3.2,3.2c1.8,0,3.2-1.4,3.2-3.2C6.6,10.7,5.1,9.3,3.4,9.3z M3.4,14c-0.8,0-1.5-0.7-1.5-1.5
		c0-0.8,0.7-1.5,1.5-1.5c0.8,0,1.5,0.7,1.5,1.5C4.8,13.3,4.2,14,3.4,14z"/>
	<path class="st2" d="M7,12.5c-1.8,0-3.2,1.4-3.2,3.2c0,1.8,1.4,3.2,3.2,3.2s3.2-1.4,3.2-3.2C10.2,13.9,8.8,12.5,7,12.5z M7,17.2
		c-0.8,0-1.5-0.7-1.5-1.5c0-0.8,0.7-1.5,1.5-1.5c0.8,0,1.5,0.7,1.5,1.5C8.5,16.6,7.8,17.2,7,17.2z"/>
	<path class="st2" d="M12.9,9.3c-0.4,0-0.8,0.1-1.1,0.2v-2c0-0.6-0.5-1.1-1.1-1.1c-0.6,0-1.1,0.5-1.1,1.1v3.3c0,0.3,0,1.6,0,1.6
		s0,0,0,0c0,0,0,0.1,0,0.1c0,1.8,1.4,3.2,3.2,3.2c1.8,0,3.2-1.4,3.2-3.2C16.1,10.7,14.7,9.3,12.9,9.3z M12.9,14
		c-0.8,0-1.5-0.7-1.5-1.5c0-0.8,0.7-1.5,1.5-1.5c0.8,0,1.5,0.7,1.5,1.5C14.4,13.3,13.7,14,12.9,14z"/>
	<path class="st2" d="M16.6,12.2c-1.8,0-3.2,1.4-3.2,3.2c0,1.8,1.4,3.2,3.2,3.2s3.2-1.4,3.2-3.2C19.9,13.7,18.4,12.2,16.6,12.2z
		 M16.6,17c-0.8,0-1.5-0.7-1.5-1.5c0-0.8,0.7-1.5,1.5-1.5c0.8,0,1.5,0.7,1.5,1.5C18.1,16.3,17.5,17,16.6,17z"/>
	<circle class="st3" cx="0.8" cy="5.1" r="0.7"/>
	<circle class="st3" cx="10" cy="5.1" r="0.8"/>
	<circle class="st3" cx="12.3" cy="3.4" r="0.7"/>
	<circle class="st3" cx="19.3" cy="7.6" r="0.6"/>
	<circle class="st3" cx="10.8" cy="1.4" r="0.5"/>
	<circle class="st3" cx="8.5" cy="7.3" r="0.4"/>
</g>
<g id="图层_2">
	<path class="st4" d="M5.1,9.4c-0.6,0-1.2,0.1-1.7,0.3V6.6C3.4,5.7,2.6,5,1.7,5C0.8,5,0.1,5.7,0.1,6.6v5.1c0,0.4,0,2.4,0,2.4
		s0,0,0,0c0,0.1,0,0.1,0,0.2c0,2.7,2.2,5,5,5c2.7,0,5-2.2,5-5C10,11.7,7.8,9.4,5.1,9.4z M5.1,16.7c-1.3,0-2.3-1-2.3-2.3
		c0-1.3,1-2.3,2.3-2.3c1.3,0,2.3,1,2.3,2.3C7.4,15.7,6.3,16.7,5.1,16.7z"/>
	<path class="st4" d="M6.3,0.8c-1.7,0-3.1,1.4-3.1,3.1c0,1.7,1.4,3.1,3.1,3.1s3.1-1.4,3.1-3.1C9.4,2.1,8,0.8,6.3,0.8z M6.3,5.3
		c-0.8,0-1.4-0.6-1.4-1.4c0-0.8,0.6-1.4,1.4-1.4c0.8,0,1.4,0.6,1.4,1.4C7.7,4.7,7.1,5.3,6.3,5.3z"/>
	<path class="st4" d="M15,9.4c-0.6,0-1.2,0.1-1.7,0.3V6.6c0-0.9-0.7-1.6-1.6-1.6c-0.9,0-1.6,0.7-1.6,1.6v5.1c0,0.4,0,2.4,0,2.4
		s0,0,0,0c0,0.1,0,0.1,0,0.2c0,2.7,2.2,5,5,5c2.7,0,5-2.2,5-5C20,11.6,17.7,9.4,15,9.4z M15,16.6c-1.3,0-2.3-1-2.3-2.3
		c0-1.3,1-2.3,2.3-2.3c1.3,0,2.3,1,2.3,2.3C17.3,15.6,16.3,16.6,15,16.6z"/>
	<path class="st4" d="M18.2,6.7c-0.9,0-1.7,0.8-1.7,1.7c0,0.9,0.8,1.7,1.7,1.7c0.9,0,1.7-0.8,1.7-1.7C19.9,7.4,19.1,6.7,18.2,6.7z
		 M18.2,9.2c-0.4,0-0.8-0.3-0.8-0.8c0-0.4,0.3-0.8,0.8-0.8C18.6,7.6,19,8,19,8.4C19,8.8,18.6,9.2,18.2,9.2z"/>
</g>
</svg>
